<svg width="26" height="26" viewBox="0 0 26 26" fill="none" xmlns="http://www.w3.org/2000/svg">
<path d="M4.33366 21.6668C3.73783 21.6668 3.22324 21.4592 2.78991 21.0439C2.37463 20.6106 2.16699 20.096 2.16699 19.5002V6.50016C2.16699 5.90433 2.37463 5.39877 2.78991 4.9835C3.22324 4.55016 3.73783 4.3335 4.33366 4.3335H21.667C22.2628 4.3335 22.7684 4.55016 23.1837 4.9835C23.617 5.39877 23.8337 5.90433 23.8337 6.50016V19.5002C23.8337 20.096 23.617 20.6106 23.1837 21.0439C22.7684 21.4592 22.2628 21.6668 21.667 21.6668H4.33366ZM13.0003 14.0835L21.667 8.66683V6.50016L13.0003 11.9168L4.33366 6.50016V8.66683L13.0003 14.0835Z" fill="#ABB7CC"/>
</svg>
