<svg width="26" height="26" viewBox="0 0 26 26" fill="none" xmlns="http://www.w3.org/2000/svg">
<path d="M4.33366 21.6668C3.73783 21.6668 3.22776 21.4547 2.80345 21.0304C2.37914 20.6061 2.16699 20.096 2.16699 19.5002V6.50016C2.16699 5.90433 2.37914 5.39426 2.80345 4.96995C3.22776 4.54565 3.73783 4.3335 4.33366 4.3335H21.667C22.2628 4.3335 22.7729 4.54565 23.1972 4.96995C23.6215 5.39426 23.8337 5.90433 23.8337 6.50016V19.5002C23.8337 20.096 23.6215 20.6061 23.1972 21.0304C22.7729 21.4547 22.2628 21.6668 21.667 21.6668H4.33366ZM13.0003 14.0835L4.33366 8.66683V19.5002H21.667V8.66683L13.0003 14.0835ZM13.0003 11.9168L21.667 6.50016H4.33366L13.0003 11.9168ZM4.33366 8.66683V6.50016V19.5002V8.66683Z" fill="#79747E"/>
</svg>
